<?xml version="1.0" standalone="no"?><!DOCTYPE svg PUBLIC "-//W3C//DTD SVG 1.1//EN" "http://www.w3.org/Graphics/SVG/1.1/DTD/svg11.dtd"><svg t="1534672763723" class="icon" style="" viewBox="0 0 1024 1024" version="1.1" xmlns="http://www.w3.org/2000/svg" p-id="1468" xmlns:xlink="http://www.w3.org/1999/xlink" width="16" height="16"><defs><style type="text/css"></style></defs><path d="M421.647059 813.176471c-216.847059 0-391.529412-174.682353-391.529412-391.529412s174.682353-391.529412 391.529412-391.529412 391.529412 174.682353 391.529412 391.529412-174.682353 391.529412-391.529412 391.529412z m0-722.82353c-180.705882 0-331.294118 150.588235-331.294118 331.294118s150.588235 331.294118 331.294118 331.294117 331.294118-150.588235 331.294117-331.294117-150.588235-331.294118-331.294117-331.294118z" fill="#8a8a8a" p-id="1469"></path><path d="M981.835294 1011.952941c-6.023529 0-18.070588 0-24.094118-6.023529l-289.129411-289.129412c-12.047059-12.047059-12.047059-30.117647 0-42.164706s30.117647-12.047059 42.164706 0l289.129411 289.129412c12.047059 12.047059 12.047059 30.117647 0 42.164706-6.023529 0-12.047059 6.023529-18.070588 6.023529z" fill="#8a8a8a" p-id="1470"></path></svg>