<?xml version="1.0" encoding="UTF-8"?>
<svg width="60px" height="52px" viewBox="0 0 60 52" version="1.1" xmlns="http://www.w3.org/2000/svg" xmlns:xlink="http://www.w3.org/1999/xlink">
    <!-- Generator: Sketch 63.1 (92452) - https://sketch.com -->
    <title>编组备份</title>
    <desc>Created with Sketch.</desc>
    <defs>
        <polygon id="path-1" points="0.0770893294 0.326319033 41.1284132 0.326319033 41.1284132 42.4137931 0.0770893294 42.4137931"></polygon>
    </defs>
    <g id="页面1" stroke="none" stroke-width="1" fill="none" fill-rule="evenodd">
        <g id="0-一加-线下门店搜索-PC" transform="translate(-930.000000, -2137.000000)">
            <g id="编组-7" transform="translate(0.000000, 2032.000000)">
                <g id="编组-3" transform="translate(658.000000, 105.000000)">
                    <g id="编组备份" transform="translate(272.000000, 0.000000)">
                        <path d="M37.0619195,31.8211336 C37.5806338,32.3577482 38.1360418,32.8546752 38.7248076,33.3092468 L40.7206068,31.8438122 C41.3877635,31.3685631 42.2754155,31.3418825 42.9836023,31.7851147 L45.4534164,33.3716128 C46.066867,33.7184612 46.4731654,34.3427884 46.541549,35.0444894 C46.6099326,35.7461905 46.3320618,36.4368857 45.7553048,36.9304777 L45.3119792,37.2829958 C43.9419729,38.3658966 42.0766028,38.5793418 40.5141218,37.8426224 C38.4185826,36.8864546 36.5215226,35.5454186 34.9173443,33.8858823 C33.3602006,32.2640324 32.1379695,30.3513634 31.3247055,28.2686053 C30.6608846,26.6100696 31.1572492,24.712075 32.5943047,23.5548018 L33.0356289,23.2272969 C33.5533424,22.8314228 34.2164962,22.6763415 34.8566331,22.8004065 C35.4964363,22.924805 36.052845,23.3166771 36.3964307,23.8969812 L37.8474965,26.4339773 C38.2928236,27.2133857 38.1410455,28.1965676 37.5232584,28.7655324 L35.8743806,30.4100608 C36.2386481,30.9049869 36.6352728,31.3765673 37.0619195,31.8211336" id="Fill-1" fill="#000000"></path>
                        <path d="M16.6646752,41.3793103 C16.5437936,41.3793103 16.4209195,41.3660294 16.2980453,41.3381395 C14.0713663,40.8364534 11.9668973,39.9844835 10.030135,38.8021511 L2.87653442,41.0476198 C2.28640637,41.2325564 1.64247938,41.0748456 1.2051138,40.6375719 C0.767748219,40.2002982 0.609672277,39.5565064 0.794979788,38.9665022 L3.04092011,31.8137398 C-1.94976319,23.6366876 -0.710726766,12.9578453 6.11941587,6.12913686 C10.0726428,2.17674005 15.3289999,0 20.9197741,0 C26.5108803,0 31.7672374,2.17674005 35.7204643,6.12913686 C36.3690406,6.77757697 36.3690406,7.82876046 35.7204643,8.47686854 C35.0725522,9.12497662 34.0204838,9.12497662 33.3725717,8.47686854 C30.046335,5.15133036 25.6238617,3.32022582 20.9197741,3.32022582 C16.2160185,3.32022582 11.7935452,5.15133036 8.46730853,8.47686854 C2.56038253,14.3828862 1.62321802,23.7103966 6.2389691,30.655313 C6.51659828,31.0726654 6.59065486,31.5929447 6.44054914,32.0713893 L4.91591332,36.9275516 L9.77276342,35.4029039 C10.2509764,35.2531617 10.7710329,35.3268707 11.1894692,35.6041096 C12.9711445,36.7881021 14.9358026,37.6277872 17.0283163,38.0995913 C17.922973,38.301129 18.4845411,39.1896214 18.2829611,40.0840903 C18.1089447,40.8553787 17.4235062,41.3793103 16.6646752,41.3793103" id="Fill-3" fill="#000000"></path>
                        <g id="编组" transform="translate(18.620690, 9.310345)">
                            <mask id="mask-2" fill="white">
                                <use xlink:href="#path-1"></use>
                            </mask>
                            <g id="Clip-6"></g>
                            <path d="M20.603508,3.66598778 C15.9885745,3.66598778 11.6499376,5.50814906 8.38618518,8.85316128 C1.64982894,15.7582604 1.64982894,26.993574 8.38618518,33.8983391 C14.1818952,39.8389419 23.3351941,40.7817304 30.1503991,36.1392569 C30.5606082,35.8603945 31.0718219,35.7859199 31.5397013,35.9368729 L36.3054901,37.4701149 L34.8096443,32.5855153 C34.6620472,32.104603 34.7347054,31.5812769 35.007092,31.1614806 C39.5356829,24.1755615 38.616215,14.7934301 32.8208308,8.85316128 C29.5574043,5.50814906 25.2187673,3.66598778 20.603508,3.66598778 M20.6321803,42.4138265 C15.320315,42.4138265 10.0420092,40.3185183 6.08262829,36.2598189 C-1.92475699,28.0525829 -1.92475699,14.6989175 6.08262829,6.49134754 C9.96120554,2.51580586 15.1183057,0.326319033 20.603508,0.326319033 C26.0890361,0.326319033 31.2458105,2.51580586 35.1243877,6.49134754 C41.8258811,13.3603782 43.0411947,24.1014209 38.1450774,32.326691 L40.3489329,39.5210054 C40.5304154,40.1144646 40.3756503,40.7623603 39.9462178,41.2021947 C39.5177627,41.6416951 38.8850176,41.8006633 38.3066848,41.6143098 L31.2871898,39.3560258 C28.004214,41.4092541 24.3100516,42.4138265 20.6321803,42.4138265" id="Fill-5" fill="#000000" mask="url(#mask-2)"></path>
                        </g>
                    </g>
                </g>
            </g>
        </g>
    </g>
</svg>